<svg xmlns="http://www.w3.org/2000/svg" version="1.1" xmlns:xlink="http://www.w3.org/1999/xlink" xmlns:svgjs="http://svgjs.dev/svgjs" width="128" height="128" viewBox="0 0 128 128"><g transform="matrix(0.533678756476684,0,0,0.533678756476684,29.95907576401131,12.760752631578946)"><svg viewBox="0 0 63 95" data-background-color="#ffffff" preserveAspectRatio="xMidYMid meet" height="193" width="128" xmlns="http://www.w3.org/2000/svg" xmlns:xlink="http://www.w3.org/1999/xlink"><g id="tight-bounds" transform="matrix(1,0,0,1,-0.10561303205503236,-0.24049999999999727)"><svg viewBox="0 0 63.21122606411005 95.481" height="95.481" width="63.21122606411005"><g><svg viewBox="0 0 63.21122606411005 95.481" height="95.481" width="63.21122606411005"><g><svg viewBox="0 0 63.21122606411005 95.481" height="95.481" width="63.21122606411005"><g><svg viewBox="0 0 63.21122606411005 95.481" height="95.481" width="63.21122606411005"><g><svg viewBox="0 0 63.21122606411005 95.481" height="95.481" width="63.21122606411005"><g><svg viewBox="0 0 63.21122606411005 95.481" height="95.481" width="63.21122606411005"><g><svg xmlns="http://www.w3.org/2000/svg" xmlns:xlink="http://www.w3.org/1999/xlink" version="1.1" x="0" y="0" viewBox="24.761855407245655 5 59.58264309935908 90" enable-background="new 0 0 100 100" xml:space="preserve" width="63.21122606411005" height="95.481" class="icon-icon-0" data-fill-palette-color="accent" id="icon-0"><g fill="#915eff" data-fill-palette-color="accent"><path d="M73.76 35.603C86.875 48 91.5 66.25 65.633 82.379c3.64-4.928 5.654-9.794 6.096-14.669 0.951-10.516-5.606-19.072-12.835-26.752C48.298 29.7 47.51 18.84 56.413 6.782 54.578 22.641 64.6 26.944 73.76 35.603zM45.288 93.716c6.184-13.053 7.276-20.302-8.197-34.939-4.204-3.977-7.451-8.029-9.71-12.086-2.881 6.435-5.164 20.081 3.244 27.935C36.312 79.938 44.125 83.125 45.288 93.716zM56.709 43.014C48.183 33.954 41.999 21.253 54 5 21.497 17.692 19.625 38.125 39.151 56.597 55.603 72.158 54.75 80.75 48 95 79.875 71.5 68.709 55.764 56.709 43.014z" fill="#915eff" data-fill-palette-color="accent"></path></g></svg></g></svg></g></svg></g></svg></g></svg></g></svg></g><defs></defs></svg><rect width="63.21122606411005" height="95.481" fill="none" stroke="none" visibility="hidden"></rect></g></svg></g></svg>