<svg xmlns="http://www.w3.org/2000/svg" version="1.1" xmlns:xlink="http://www.w3.org/1999/xlink" xmlns:svgjs="http://svgjs.dev/svgjs" width="2000" height="1517" viewBox="0 0 2000 1517"><g transform="matrix(1,0,0,1,-0.03590960748249472,0.8542115049139056)"><svg viewBox="0 0 406 308" data-background-color="#ffffff" preserveAspectRatio="xMidYMid meet" height="1517" width="2000" xmlns="http://www.w3.org/2000/svg" xmlns:xlink="http://www.w3.org/1999/xlink"><g id="tight-bounds" transform="matrix(1,0,0,1,10.472710349681051,3.305805224176794)"><svg viewBox="0 0 395.52 209.03297570703876" height="209.03297570703876" width="395.52"><g><svg viewBox="0 0 695.0550013732283 367.3377205125046" height="209.03297570703876" width="395.52"><g transform="matrix(1,0,0,1,301.54633995590547,60.06886025625229)"><svg viewBox="0 0 393.5086614173228 247.2" height="247.2" width="393.5086614173228"><g id="textblocktransform"><svg viewBox="0 0 393.5086614173228 247.2" height="247.2" width="393.5086614173228" id="textblock"><g><svg viewBox="0 0 393.5086614173228 247.2" height="247.2" width="393.5086614173228"><g transform="matrix(1,0,0,1,0,0)"><svg width="393.5086614173228" viewBox="4.400000095367432 -37.599998474121094 60.650001525878906 38.099998474121094" height="247.2" data-palette-color="#1ebbd7"><path d="M32.45-26.05L32.45-26.05Q32.45-22.35 30.75-19.93 29.05-17.5 26.05-16.3 23.05-15.1 19.15-15.1L19.15-15.1 10.95-15.1Q10.45-15.1 10.45-14.6L10.45-14.6 10.45-0.85Q10.45 0 9.55 0L9.55 0 5.2 0Q4.75 0 4.58-0.18 4.4-0.35 4.4-0.75L4.4-0.75 4.4-36.35Q4.4-37.1 5.1-37.1L5.1-37.1 18.45-37.1Q22.4-37.1 25.58-35.95 28.75-34.8 30.6-32.35 32.45-29.9 32.45-26.05L32.45-26.05ZM26.25-26.2L26.25-26.2Q26.25-28.5 25.25-29.93 24.25-31.35 22.43-32 20.6-32.65 18.1-32.65L18.1-32.65 11.2-32.65Q10.45-32.65 10.45-31.95L10.45-31.95 10.45-20.3Q10.45-19.55 11-19.55L11-19.55 18.45-19.55Q22-19.55 24.13-21.2 26.25-22.85 26.25-26.2L26.25-26.2ZM59.8-29.6L59.8-29.6Q58.5-31.05 56.6-32.1 54.7-33.15 51.65-33.15L51.65-33.15Q48.1-33.15 46.12-31.68 44.15-30.2 44.15-27.6L44.15-27.6Q44.15-26.9 44.5-25.95 44.85-25 45.92-24.13 47-23.25 49.05-22.5L49.05-22.5 56.55-20.15Q61.1-18.75 63.07-16.18 65.05-13.6 65.05-10.15L65.05-10.15Q65.05-6.85 63.37-4.45 61.7-2.05 58.62-0.78 55.55 0.5 51.3 0.5L51.3 0.5Q48.15 0.5 45.47-0.23 42.8-0.95 40.72-2.38 38.65-3.8 37.25-5.85L37.25-5.85Q37.05-6.2 37.1-6.5 37.15-6.8 37.55-7.1L37.55-7.1 40-8.8Q40.55-9.15 40.85-9.1 41.15-9.05 41.4-8.75L41.4-8.75Q42.65-7.15 43.92-6.05 45.2-4.95 46.87-4.42 48.55-3.9 50.95-3.9L50.95-3.9Q54.7-3.9 56.97-5.23 59.25-6.55 59.25-9.45L59.25-9.45Q59.25-10.6 58.8-11.53 58.35-12.45 57.25-13.23 56.15-14 54.05-14.75L54.05-14.75 46.5-17.2Q43.65-18.15 41.87-19.65 40.1-21.15 39.25-23.05 38.4-24.95 38.4-26.95L38.4-26.95Q38.4-30.15 40.05-32.55 41.7-34.95 44.65-36.27 47.6-37.6 51.55-37.6L51.55-37.6Q54.2-37.6 56.42-36.98 58.65-36.35 60.5-35.23 62.35-34.1 63.65-32.55L63.65-32.55Q63.85-32.3 63.92-32.05 64-31.8 63.65-31.5L63.65-31.5 60.8-29.3Q60.5-29.1 60.32-29.18 60.15-29.25 59.8-29.6L59.8-29.6Z" opacity="1" transform="matrix(1,0,0,1,0,0)" fill="#1ebbd7" class="undefined-text-0" data-fill-palette-color="primary" id="text-0"></path></svg></g></svg></g></svg></g></svg></g><g><svg viewBox="0 0 243.18835275590547 367.3377205125046" height="367.3377205125046" width="243.18835275590547"><g><svg xmlns="http://www.w3.org/2000/svg" xmlns:xlink="http://www.w3.org/1999/xlink" version="1.1" x="0" y="0" viewBox="24.761856079101562 5 59.5826416015625 90" enable-background="new 0 0 100 100" xml:space="preserve" height="367.3377205125046" width="243.18835275590547" class="icon-icon-0" data-fill-palette-color="accent" id="icon-0"><g fill="#1ebbd7" data-fill-palette-color="accent"><path d="M73.76 35.603C86.875 48 91.5 66.25 65.633 82.379c3.64-4.928 5.654-9.794 6.096-14.669 0.951-10.516-5.606-19.072-12.835-26.752C48.298 29.7 47.51 18.84 56.413 6.782 54.578 22.641 64.6 26.944 73.76 35.603zM45.288 93.716c6.184-13.053 7.276-20.302-8.197-34.939-4.204-3.977-7.451-8.029-9.71-12.086-2.881 6.435-5.164 20.081 3.244 27.935C36.312 79.938 44.125 83.125 45.288 93.716zM56.709 43.014C48.183 33.954 41.999 21.253 54 5 21.497 17.692 19.625 38.125 39.151 56.597 55.603 72.158 54.75 80.75 48 95 79.875 71.5 68.709 55.764 56.709 43.014z" fill="#1ebbd7" data-fill-palette-color="accent"></path></g><g display="none" fill="#1ebbd7" data-fill-palette-color="accent"><path display="inline" d="M54 5C16.75 17.5 14.875 56.5 26.75 70.762c10.558 12.68 15.407 7.949 19.675 20.824" fill="#1ebbd7" data-fill-palette-color="accent"></path><line display="inline" x1="56.988" y1="5.261" x2="45.528" y2="136.262" fill="#1ebbd7" data-fill-palette-color="accent"></line><line display="inline" x1="54.131" y1="3.502" x2="42.67" y2="134.502" fill="#1ebbd7" data-fill-palette-color="accent"></line><path display="inline" d="M42.875 76" fill="#1ebbd7" data-fill-palette-color="accent"></path></g></svg></g></svg></g></svg></g><defs></defs></svg><rect width="395.52" height="209.03297570703876" fill="none" stroke="none" visibility="hidden"></rect></g></svg></g></svg>